PathFileType	4	(X/Y/Z)	C:/Users/beibeiliu/ov580/test_trc/capture2\sequence.8_training_dense_right.trc
DataRate	CameraRate	NumFrames	NumMarkers	Units	OrigDataRate	OrigDataStartFrame	OrigNumFrames
120	120	22	19	mm	120	351	400
Frame#	Time	ThumbCMC			ThumbMCP			ThumbIP			ThumbTip			IndexMCP			IndexPIP			IndexTip			MiddleMCP			MiddlePIP			MiddleTip			RingMCP			RingPIP			RingTip			PinkyMCP			PinkyPIP			PinkyTip			BackHand1			BackHand2			BackHand3	
		X0	Y0	Z0	X1	Y1	Z1	X2	Y2	Z2	X3	Y3	Z3	X4	Y4	Z4	X5	Y5	Z5	X6	Y6	Z6	X7	Y7	Z7	X8	Y8	Z8	X9	Y9	Z9	X10	Y10	Z10	X11	Y11	Z11	X12	Y12	Z12	X13	Y13	Z13	X14	Y14	Z14	X15	Y15	Z15	X16	Y16	Z16	X17	Y17	Z17	X18	Y18	Z18	
350	2.91667	206.552	22.5936	-1.15898	217.283	39.8245	-16.6646	231.304	49.0546	-34.5525	249.305	56.1272	-46.5178	195.389	18.378	-71.316	199.298	24.7149	-94.2508	197.53	27.3108	-121.183	165.45	9.77451	-77.7095	162.057	14.7132	-101.652	151.62	16.4273	-128.453	141.726	10.1366	-68.426	127.039	14.1991	-92.7951	121.638	20.9791	-116.064	117.099	13.2191	-52.1543	99.5996	18.8682	-59.865	81.6161	17.906	-77.8908	151.203	-7.78494	-23.2711	153.103	-14.5733	8.31078	183.037	-6.4633	-12.3433	
351	2.925	203.252	21.4479	-1.43486	213.784	37.8945	-17.692	232.63	45.3634	-35.9835	243.454	52.2195	-55.5306	191.218	10.9505	-71.9195	195.854	15.9397	-100.721	198.275	16.3667	-120.494	164.338	2.26966	-75.7294	162.562	5.86282	-100.689	156.238	4.28782	-128.134	140.515	3.31792	-70.1059	128.859	5.80643	-93.9038	118	7.51839	-113.883	119.032	7.30104	-51.732	100.42	11.2947	-66.6224	80.3516	6.4207	-81.4888	152.392	-8.26889	-25.2936	154.361	-16.1217	7.5789	181.921	-7.24476	-15.1269	
352	2.93333	203.896	19.2169	-4.76195	214.06	35.3908	-19.1047	230.158	41.4187	-41.6682	240.7	47.6069	-53.1253	193.588	5.0345	-72.03	195.218	6.96967	-96.4187	197.131	4.56193	-120.338	164.511	-3.96728	-80.8689	163.144	-2.73016	-102.926	159.599	-7.79674	-131.433	139.719	-3.47545	-69.635	130.958	-2.92139	-91.2036	123.113	-4.94635	-119.202	117.884	0.847403	-51.9269	102.335	2.40309	-68.6013	84.7233	-3.42698	-84.3235	147.324	-14.0385	-21.2873	150.749	-15.5853	9.00456	183.751	-8.91446	-14.716	
353	2.94167	201.94	17.4989	-1.43541	212.757	30.8224	-25.4037	226.522	36.7973	-45.0184	242.662	42.4275	-58.2239	189.603	-3.70861	-72.8804	197.881	-1.1636	-96.0498	196.334	-6.52577	-121.631	163.471	-12.3616	-77.0609	158.404	-14.4505	-99.9186	154.835	-20.3513	-128.99	137.46	-12.7878	-71.5228	130.559	-13.2232	-96.1414	122.791	-15.3612	-115.808	115.945	-6.56348	-53.012	104.512	-5.83959	-68.2744	86.0391	-12.7329	-85.2484	148.358	-17.6931	-19.2547	152.646	-19.2337	4.95206	179.148	-12.7703	-8.41151	
354	2.95	201.256	14.762	-3.71039	210.975	27.6632	-22.9902	224.501	31.4437	-44.4326	240.624	36.1673	-57.9812	193.509	-11.548	-74.3025	197.2	-11.5577	-98.4816	199.998	-17.7454	-118.412	165.523	-21.803	-80.3132	160.429	-24.3377	-100.765	159.187	-33.6166	-130.301	140.052	-19.9355	-69.8946	128.701	-23.8952	-94.0834	122.607	-29.5504	-118.292	114.735	-15.2293	-57.4397	101.167	-15.0209	-68.5732	85.4865	-22.1402	-85.0728	145.298	-21.8116	-20.1002	152.008	-19.8171	6.11823	177.295	-16.6214	-7.90262	
355	2.95833	198.679	12.275	-3.24976	211.443	23.0048	-29.0449	224.353	26.0042	-44.4257	238.685	29.1756	-63.7487	189.977	-20.2655	-73.2006	201.521	-22.0568	-97.8353	202.538	-30.801	-119.665	163.423	-30.0174	-75.2284	161.623	-35.6052	-99.3441	162.634	-45.247	-125.871	139.281	-29.6762	-73.1643	133.649	-35.0185	-95.5428	125.059	-42.7882	-118.642	115.568	-23.69	-59.2828	102.337	-23.068	-69.3297	86.7938	-33.7469	-83.6704	146.224	-27.9628	-22.9991	148.739	-23.5861	7.02309	177.974	-19.8091	-9.93223	
356	2.96667	197.637	8.36754	-7.11552	208.623	17.8455	-30.6421	221.854	19.7485	-48.8873	238.125	22.7892	-62.5386	191.854	-29.2836	-72.586	196.955	-31.2681	-92.9223	203.327	-41.0647	-114.203	164.794	-41.3467	-77.9025	164.357	-46.7943	-100.369	163.195	-58.2743	-125.295	140.809	-38.3884	-71.6325	131.818	-44.5762	-93.8452	125.054	-53.3055	-112.539	114.219	-29.6498	-55.1365	102.031	-32.8241	-71.4687	84.257	-45.5736	-87.8336	145.005	-33.838	-19.0972	144.894	-28.3627	8.32067	179.748	-22.8862	-10.8996	
357	2.975	195.467	2.9191	-11.2749	206.153	13.2125	-28.8336	225.506	11.8806	-51.71	236.26	12.4845	-69.2524	193.808	-36.4797	-69.9508	202.263	-42.6547	-94.6601	203.881	-54.0281	-110.318	168.042	-47.1614	-73.0076	164.146	-57.8426	-97.3871	161.476	-71.751	-119.396	137.057	-46.6021	-67.0723	133.363	-54.8804	-91.6304	127.384	-66.9635	-112.967	117.874	-37.9258	-55.7315	104.69	-41.7453	-72.3519	90.0382	-54.9368	-84.0571	145.798	-40.8062	-20.4268	146.997	-29.8796	10.4758	174.208	-31.2879	-8.93161	
358	2.98333	195.443	-1.03153	-10.1219	207.695	7.16408	-31.2243	223.706	6.12654	-50.5938	238.054	7.21312	-64.3342	194.947	-44.3871	-66.9209	198.604	-53.141	-87.804	206.056	-66.0165	-109.318	168.828	-56.6551	-69.424	164.232	-67.1292	-91.335	167.625	-81.3682	-115.096	143.165	-55.6435	-65.6387	134.443	-65.8657	-89.1786	129.499	-78.6937	-110.515	114.499	-46.541	-52.9638	103.774	-52.6493	-71.6294	89.8516	-65.8727	-85.9053	144.359	-47.3141	-19.5743	143.508	-33.2786	10.1859	176.253	-33.2837	-6.31274	
359	2.99167	192.856	-3.91937	-7.17427	203.118	-0.332494	-32.4919	223.156	0.799927	-48.7583	238.904	0.422402	-64.1734	194.785	-52.5594	-63.3345	204.903	-63.2749	-87.4036	204.75	-77.3566	-103.113	165.375	-65.7304	-67.1249	164.929	-76.6089	-87.9899	170.191	-93.9814	-110.855	139.795	-66.0339	-65.6561	134.939	-76.5765	-85.7408	133.607	-89.0126	-105.195	115.754	-55.9202	-57.1022	107.055	-60.6711	-69.8047	88.988	-74.5325	-79.0203	144.387	-47.7332	-15.2947	143.372	-39.7143	10.4169	174.383	-38.6328	-5.09937	
360	3	191.486	-8.77763	-8.08568	202.046	-5.89923	-32.8505	223.977	-7.0152	-50.5181	238.354	-7.04459	-64.9314	196.574	-62.0525	-63.5834	201.004	-70.6708	-81.9621	209.128	-83.6575	-97.8441	166.572	-74.4014	-66.7082	167.676	-87.2318	-86.4622	170.098	-105.07	-106.449	140.033	-75.0254	-64.8494	137.828	-83.9535	-83.163	133.111	-97.7972	-100.345	115.939	-62.418	-54.7304	102.987	-69.0258	-69.4593	89.822	-83.2772	-80.4216	142.156	-55.4393	-14.5254	144.825	-41.3578	10.1433	171.803	-43.8098	-6.69952	
361	3.00833	191.078	-13.6455	-9.80188	205.5	-9.80395	-33.0822	222.834	-14.5974	-51.9312	237.589	-14.9264	-66.1829	195.245	-67.4628	-60.5134	202.798	-79.8956	-80.2802	212.96	-95.5109	-96.6325	170.214	-79.5779	-61.1837	170.357	-91.9892	-80.6577	170.671	-114.947	-102.043	141.075	-78.5896	-59.0915	136.993	-93.4023	-81.0115	137.623	-108.661	-100.138	116.191	-68.0453	-52.405	107.197	-78.1369	-70.9664	90.8801	-90.612	-76.8188	141.296	-58.9518	-10.755	138.926	-44.1334	11.5055	174.741	-45.8805	-5.89116	
362	3.01667	186.718	-17.6464	-6.84719	205.176	-13.9978	-31.1645	222.197	-16.5589	-48.0266	235.248	-19.7146	-64.0734	195.126	-71.9853	-55.0286	202.987	-86.7287	-76.6905	211.83	-101.724	-90.0097	166.383	-87.2386	-59.1319	168.364	-101.821	-77.3379	169.692	-121.823	-95.645	145.454	-86.5982	-58.799	140.11	-96.5849	-74.8254	134.389	-116.693	-94.0015	115.584	-74.8229	-50.8557	105.663	-82.3669	-64.9625	95.4014	-99.8084	-77.5701	144.509	-63.2668	-10.6074	141.954	-46.9257	11.6165	169.756	-50.0109	1.70299	
363	3.025	190.995	-19.3325	-6.05091	199.908	-18.968	-29.7328	221.298	-24.8112	-51.2396	235.745	-28.7057	-66.436	197.469	-78.6081	-53.6572	206.491	-90.9048	-71.1691	210.55	-111.792	-86.8489	168.505	-94.293	-56.4404	173.424	-107.273	-73.0196	173.841	-127.937	-91.2088	146.133	-90.1607	-55.9074	140.491	-105.648	-74.0542	137.16	-125.74	-91.5048	115.257	-79.9615	-49.1734	106.141	-89.0393	-64.8243	96.3636	-108.38	-76.5166	142.048	-67.6163	-12.2131	140.827	-51.8788	14.2368	169.212	-54.6403	2.49969	
364	3.03333	190.049	-27.4191	-8.75342	200.003	-25.7376	-31.8227	222.74	-31.339	-49.7227	233.761	-34.2976	-64.9252	194.478	-86.2131	-50.2739	205.132	-96.7937	-65.8523	215.65	-115.358	-81.6077	169.428	-101.894	-53.5506	172.21	-117.266	-72.2139	175.014	-136.7	-86.0942	146.997	-97.4333	-52.961	140.951	-112.431	-70.717	140.864	-130.916	-86.5003	119.049	-84.7056	-47.0539	105.715	-94.5872	-61.8949	93.6195	-113.945	-73.802	142.873	-70.6865	-6.69122	140.836	-54.7426	15.9549	170.274	-57.9883	2.75991	
365	3.04167	188.617	-30.6795	-5.09096	201.861	-29.3471	-30.3537	220.209	-37.0762	-48.6223	232.972	-38.8565	-60.9489	193.59	-89.9121	-45.3369	207.466	-105.164	-64.7502	215.658	-122.078	-77.7163	171.613	-106.495	-50.0674	175.434	-121.289	-66.0466	174.576	-142.744	-80.7476	147.108	-101.404	-49.4658	144.496	-115.675	-65.5273	138.485	-135.508	-82.2097	116.318	-89.9711	-44.0197	106.552	-102.264	-60.4028	95.3351	-119.51	-71.54	141.219	-77.7265	-7.03282	139.844	-57.8475	19.1067	172.36	-59.2435	5.86986	
366	3.05	188.775	-31.46	-3.02743	204.468	-33.6684	-29.7308	222.882	-39.0102	-44.9578	235.273	-44.0243	-59.4661	196.244	-96.7553	-44.8629	205.231	-110.662	-61.8122	215.397	-127.994	-75.1221	169.832	-107.91	-45.4286	177.399	-125.313	-63.0086	178.367	-147.354	-77.115	144.885	-107.387	-48.4009	140.649	-121.263	-62.606	143.389	-143.597	-80.4557	121.701	-92.9102	-42.722	111.849	-108.04	-59.0031	100.544	-125.413	-68.9061	144.684	-78.6108	-6.82753	137.471	-60.7821	17.1234	168.806	-63.7386	8.5655	
367	3.05833	187.2	-35.9263	-3.70473	202.19	-35.765	-26.0552	221.653	-41.9306	-43.4362	233.69	-49.8214	-58.5433	193.414	-98.9668	-40.6916	207.591	-112.613	-58.5973	213.327	-129.461	-70.5152	171.045	-112.356	-43.4248	174.499	-127.957	-58.2133	177.968	-156.042	-74.2013	145.028	-109.262	-44.3379	144.031	-129.035	-61.9767	144.491	-147.213	-77.8725	117.571	-98.3288	-41.2243	113.143	-110.042	-56.6154	102.228	-126.966	-65.2387	143.219	-84.3515	-4.12496	134.498	-63.5948	18.8948	172.143	-66.8756	5.74589	
368	3.06667	187.687	-35.6608	-1.8075	199.344	-39.9871	-28.0418	219.987	-44.2247	-41.2444	237.314	-52.0565	-57.9907	198.836	-98.523	-38.0466	206.446	-113.22	-53.5158	215.198	-131.523	-67.2538	171.615	-111.762	-38.8334	173.055	-132.053	-56.09	178.032	-155.813	-71.0648	147.549	-109.92	-41.1495	142.727	-130.668	-60.2653	142.692	-150.019	-75.0374	120.005	-98.3286	-38.195	112.909	-110.431	-53.063	98.7562	-129.265	-61.1634	142.618	-83.1645	-1.42644	137.471	-64.136	22.0287	166.918	-67.0113	11.6494	
369	3.075	188.312	-37.1621	-2.25809	197.067	-37.805	-23.9893	218.741	-48.3608	-43.2268	236.316	-52.2131	-56.7147	196.162	-104.031	-39.2753	205.609	-116.485	-54.2608	212.94	-137.275	-67.6812	169.757	-114.653	-38.3883	174.501	-133.811	-55.5684	178.651	-155.218	-68.8964	145.565	-114.702	-42.5972	144.758	-127.844	-55.6901	144.33	-147.61	-71.9066	122.552	-99.2935	-38.9175	111.956	-112.218	-51.8622	98.4048	-133.125	-64.6687	142.258	-82.5333	1.47137	137.426	-66.0073	18.9327	167.251	-69.4266	11.4898	
370	3.08333	189.066	-39.6752	-1.68995	197.001	-40.0627	-25.2281	220.24	-48.1252	-42.5717	232.834	-55.3973	-55.4302	193.827	-103.509	-37.5898	204.995	-116.544	-52.9646	214.434	-135.208	-65.0319	168.202	-116.721	-38.898	171.692	-134.464	-54.281	175.406	-157.089	-67.8623	143.85	-111.933	-38.9743	141.997	-131.838	-57.5233	140.044	-151.888	-72.0137	119.395	-102.347	-39.118	113.058	-114.324	-53.9047	98.7894	-131.102	-63.0996	140.955	-83.879	-1.27098	135.689	-66.271	19.9469	167.714	-68.1258	10.7334	
371	3.09167	182.922	-38.7632	0.808699	197.645	-41.7993	-24.6663	216.585	-47.2736	-39.9579	232.582	-52.1633	-53.3536	197.605	-102.47	-36.8495	204.574	-119.385	-54.4562	212.172	-135.06	-65.5031	167.701	-115.256	-37.6256	175.655	-136.036	-54.6304	177.015	-158.734	-68.8682	143.594	-110.355	-38.8778	140.115	-130.001	-56.3319	140.366	-150.486	-71.6422	119.912	-101.533	-39.3855	110.614	-113.032	-53.3175	100.896	-133.83	-63.355	139.5	-86.424	-0.653933	133.48	-65.3333	23.4253	165.481	-72.0418	10.6414	
